<svg width="414" height="414" viewBox="0 0 414 414" fill="none" xmlns="http://www.w3.org/2000/svg">
<path d="M96 0.5H318C334.81 0.5 347.387 0.500389 357.367 1.31579C367.341 2.13072 374.677 3.75721 381.012 6.98511C392.208 12.6896 401.31 21.7919 407.015 32.9876C410.243 39.3227 411.869 46.6586 412.684 56.6328C413.5 66.6129 413.5 79.1902 413.5 96V318C413.5 334.81 413.5 347.387 412.684 357.367C411.869 367.341 410.243 374.677 407.015 381.012C401.31 392.208 392.208 401.31 381.012 407.015C374.677 410.243 367.341 411.869 357.367 412.684C347.387 413.5 334.81 413.5 318 413.5H96C79.1902 413.5 66.6129 413.5 56.6328 412.684C46.6586 411.869 39.3227 410.243 32.9876 407.015C21.7919 401.31 12.6896 392.208 6.98511 381.012C3.75721 374.677 2.13072 367.341 1.31579 357.367C0.500389 347.387 0.5 334.81 0.5 318V96C0.5 79.1902 0.500389 66.6129 1.31579 56.6328C2.13072 46.6586 3.75721 39.3227 6.98511 32.9876C12.6896 21.7919 21.7919 12.6896 32.9876 6.98511C39.3227 3.75721 46.6586 2.13072 56.6328 1.31579C66.6129 0.500389 79.1902 0.5 96 0.5Z" stroke="#E8E1E1"/>
</svg>
